<svg id="SvgjsSvg1026" width="288" height="288" xmlns="http://www.w3.org/2000/svg" version="1.1" xmlns:xlink="http://www.w3.org/1999/xlink" xmlns:svgjs="http://svgjs.com/svgjs"><defs id="SvgjsDefs1027"></defs><g id="SvgjsG1028"><svg xmlns="http://www.w3.org/2000/svg" viewBox="0 0 47.5 47.5" width="288" height="288"><defs><clipPath id="a"><path d="M0 38h38V0H0v38Z" fill="#000000" class="color000 svgShape"></path></clipPath></defs><g clip-path="url(#a)" transform="matrix(1.25 0 0 -1.25 0 47.5)" fill="#000000" class="color000 svgShape"><path fill="#21325e" d="M37 5a4 4 0 0 0-4-4H5a4 4 0 0 0-4 4v28a4 4 0 0 0 4 4h28a4 4 0 0 0 4-4V5Z" class="color3b88c3 svgShape"></path><path fill="#ffffff" d="M9.174 27.875c.186 1.116 1.395 2.387 3.039 2.387 1.55 0 2.759-1.116 3.1-2.232l3.659-12.278h.062l3.659 12.278c.34 1.116 1.549 2.232 3.1 2.232 1.643 0 2.852-1.271 3.039-2.387l2.883-17.302c.031-.185.031-.372.031-.526 0-1.365-.992-2.233-2.232-2.233-1.582 0-2.201.713-2.418 2.17l-1.83 12.62h-.063l-3.72-12.992c-.217-.744-.805-1.798-2.48-1.798-1.674 0-2.264 1.054-2.481 1.798l-3.721 12.992h-.061l-1.83-12.62c-.217-1.457-.837-2.17-2.418-2.17-1.24 0-2.233.868-2.233 2.233 0 .154 0 .341.032.526l2.883 17.302Z" class="colorfff svgShape"></path></g></svg></g></svg>